Simulation
nRows=19
nColumns=15
endheader
time  TH_x TH_y TH_z SC_y  SC_z  SC_x  AC_y  AC_z  AC_x  GH_y  GH_z  GH_yy  EL_x  PS_y
2.2499999999999996  0.000000  0.000000  0.000000  -43.9145898619849  6.435629503199899  0.40990994107922246  57.74240067141336  18.47824088956811  15.468663337418219  67.76255569195563  53.34322960084673  -66.47341067206015  21.596455716441245  120.000000
2.2949999999999995  0.000000  0.000000  0.000000  -43.97935618429427  6.5330177026496425  0.8942320877645541  57.83806877068482  18.2763470560283  15.365200810322685  67.71980531809116  53.5447478771724  -66.42652719779632  22.03983615891962  120.000000
2.3399999999999994  0.000000  0.000000  0.000000  -43.987222485741675  6.564963159656747  1.1756319724815  57.89545629386405  18.125316724669  15.271863289074837  67.72878552569657  53.68164855280756  -66.43899900190769  22.434878820716555  120.000000
2.3849999999999993  0.000000  0.000000  0.000000  -43.95661131696646  6.537296053443092  1.282806646212326  57.909597740637295  18.036367030144653  15.180846803588645  67.76675850732893  53.782165810810845  -66.45363313969881  22.721960586971612  120.000000
2.4299999999999997  0.000000  0.000000  0.000000  -43.90038774355654  6.471563099325299  1.2634636753100434  57.87072858477559  18.015405446400504  15.091513463668852  67.80660162462773  53.872090412116556  -66.40929537645174  22.874673302892205  120.000000
2.4749999999999996  0.000000  0.000000  0.000000  -43.828244093245246  6.4060704107151265  1.1855766299901271  57.76512256338292  18.064761012683835  15.011000179717048  67.82366223337199  53.96897912558169  -66.24120987423967  22.90254622494695  120.000000
2.5199999999999996  0.000000  0.000000  0.000000  -43.74956305584412  6.392616807488495  1.1359545689562436  57.578906874981364  18.178616328470806  14.950211342739912  67.80454653195088  54.08664266745171  -65.8852603227465  22.835471123661165  120.000000
2.5649999999999995  0.000000  0.000000  0.000000  -43.67591392571723  6.489014577237286  1.2170146648468327  57.30250322339547  18.337701102116085  14.920301494103784  67.75122100812429  54.23624331117641  -65.28390549172697  22.707908046712582  120.000000
2.6099999999999994  0.000000  0.000000  0.000000  -43.62086543817322  6.747701001386662  1.534334951362741  56.934981290491514  18.50603725740995  14.929660742865218  67.6787588577706  54.430060042988664  -64.3980131643774  22.549982342255625  120.000000
2.6549999999999994  0.000000  0.000000  0.000000  -43.598904929761645  7.2033209842854715  2.1805137611487746  56.4930318462456  18.62885383401342  14.983251650969033  67.60641360427948  54.685901519765395  -63.223489678683215  22.38163670075318  120.000000
2.6999999999999993  0.000000  0.000000  0.000000  -43.62571509379357  7.86493173986291  3.2222629709830635  56.014381738866874  18.638290974922185  15.081683275122602  67.55424612104433  55.0298860296047  -61.80138483513016  22.21036954788961  120.000000
2.7449999999999997  0.000000  0.000000  0.000000  -43.71940114545624  8.717877259427745  4.697314626346732  55.55311492621221  18.469953693313805  15.223850021528952  67.54607486145929  55.48649348548456  -60.208947505619385  22.034555994688986  120.000000
2.7899999999999996  0.000000  0.000000  0.000000  -43.89979864900049  9.731268009180237  6.615136626235186  55.16722191487068  18.08013656559241  15.409976687266829  67.61234284516215  56.069528015071846  -58.54236930159807  21.848313784824594  120.000000
2.8349999999999995  0.000000  0.000000  0.000000  -44.184952534264276  10.864704322906148  8.957967523939818  54.90653326663209  17.452428539798785  15.646909889381654  67.78566628194343  56.776673771394165  -56.89897986540857  21.64459813642653  120.000000
2.8799999999999994  0.000000  0.000000  0.000000  -44.5824443716895  12.075297745783656  11.681422114773698  54.80112531665648  16.59436398005703  15.948991683430942  68.0918974504144  57.59227601121418  -55.36434935254201  21.416652058406072  120.000000
2.9249999999999994  0.000000  0.000000  0.000000  -45.093712434479194  13.321032320755506  14.719887924737815  54.863478247320145  15.529261760483061  16.334926767816956  68.54386681254064  58.49146850377779  -54.0037817448745  21.16059525424159  120.000000
2.9699999999999993  0.000000  0.000000  0.000000  -45.71535163799525  14.563909083999201  17.996417432534376  55.09979670211313  14.284686590721767  16.817968556183907  69.13755302583391  59.44900788816582  -52.86621151823356  20.873229401041137  120.000000
3.0149999999999992  0.000000  0.000000  0.000000  -46.436194215410254  15.775694131228006  21.43433467298273  55.516578156753305  12.875482122558369  17.40249741852864  69.85230607682364  60.4408956573657  -51.98819111603605  20.54887056561733  120.000000
3.0599999999999996  0.000000  0.000000  0.000000  -47.23596003697331  16.931142467146806  24.967407616420093  56.12477131348945  11.302735897075143  18.066833995140804  70.64867457920194  61.45112809128635  -51.391060860840405  20.180238609861558  120.000000
